<?xml version="1.0" encoding="utf-8" standalone="no"?>
<!DOCTYPE svg PUBLIC "-//W3C//DTD SVG 1.1//EN"
  "http://www.w3.org/Graphics/SVG/1.1/DTD/svg11.dtd">
<svg xmlns:xlink="http://www.w3.org/1999/xlink" width="460.8pt" height="345.6pt" viewBox="0 0 460.8 345.6" xmlns="http://www.w3.org/2000/svg" version="1.1">
 <metadata>
  <rdf:RDF xmlns:dc="http://purl.org/dc/elements/1.1/" xmlns:cc="http://creativecommons.org/ns#" xmlns:rdf="http://www.w3.org/1999/02/22-rdf-syntax-ns#">
   <cc:Work>
    <dc:type rdf:resource="http://purl.org/dc/dcmitype/StillImage"/>
    <dc:date>2025-12-05T11:10:51.661325</dc:date>
    <dc:format>image/svg+xml</dc:format>
    <dc:creator>
     <cc:Agent>
      <dc:title>Matplotlib v3.10.7, https://matplotlib.org/</dc:title>
     </cc:Agent>
    </dc:creator>
   </cc:Work>
  </rdf:RDF>
 </metadata>
 <defs>
  <style type="text/css">*{stroke-linejoin: round; stroke-linecap: butt}</style>
 </defs>
 <g id="figure_1">
  <g id="patch_1">
   <path d="M 0 345.6 
L 460.8 345.6 
L 460.8 0 
L 0 0 
L 0 345.6 
z
" style="fill: none"/>
  </g>
  <g id="axes_1">
   <g id="line2d_1">
    <path d="M 251.062272 120.609882 
L 284.592384 91.476706 
" clip-path="url(#p864b9a02ab)" style="fill: none; stroke: #00ffff; stroke-width: 3; stroke-linecap: round"/>
   </g>
   <g id="line2d_2">
    <path d="M 302.155776 121.479529 
L 284.592384 91.476706 
" clip-path="url(#p864b9a02ab)" style="fill: none; stroke: #00ffff; stroke-width: 3; stroke-linecap: round"/>
   </g>
   <g id="line2d_3">
    <path d="M 251.062272 120.609882 
L 212.742144 124.523294 
" clip-path="url(#p864b9a02ab)" style="fill: none; stroke: #00ffff; stroke-width: 3; stroke-linecap: round"/>
   </g>
   <g id="line2d_4">
    <path d="M 212.742144 124.523294 
L 199.968768 94.955294 
" clip-path="url(#p864b9a02ab)" style="fill: none; stroke: #00ffff; stroke-width: 3; stroke-linecap: round"/>
   </g>
   <g id="line2d_5">
    <path d="M 302.155776 121.479529 
L 345.26592 125.392941 
" clip-path="url(#p864b9a02ab)" style="fill: none; stroke: #00ffff; stroke-width: 3; stroke-linecap: round"/>
   </g>
   <g id="line2d_6">
    <path d="M 345.26592 125.392941 
L 358.039296 96.694588 
" clip-path="url(#p864b9a02ab)" style="fill: none; stroke: #00ffff; stroke-width: 3; stroke-linecap: round"/>
   </g>
   <g id="line2d_7">
    <path d="M 251.062272 120.609882 
L 256.384512 185.398588 
" clip-path="url(#p864b9a02ab)" style="fill: none; stroke: #00ffff; stroke-width: 3; stroke-linecap: round"/>
   </g>
   <g id="line2d_8">
    <path d="M 302.155776 121.479529 
L 292.575744 185.398588 
" clip-path="url(#p864b9a02ab)" style="fill: none; stroke: #00ffff; stroke-width: 3; stroke-linecap: round"/>
   </g>
   <g id="line2d_9">
    <path d="M 256.384512 185.398588 
L 220.19328 228.011294 
" clip-path="url(#p864b9a02ab)" style="fill: none; stroke: #00ffff; stroke-width: 3; stroke-linecap: round"/>
   </g>
   <g id="line2d_10">
    <path d="M 220.19328 228.011294 
L 216.999936 265.406118 
" clip-path="url(#p864b9a02ab)" style="fill: none; stroke: #00ffff; stroke-width: 3; stroke-linecap: round"/>
   </g>
   <g id="line2d_11">
    <path d="M 256.384512 185.398588 
L 292.575744 185.398588 
" clip-path="url(#p864b9a02ab)" style="fill: none; stroke: #00ffff; stroke-width: 3; stroke-linecap: round"/>
   </g>
   <g id="line2d_12">
    <path d="M 292.575744 185.398588 
L 334.089216 227.576471 
" clip-path="url(#p864b9a02ab)" style="fill: none; stroke: #00ffff; stroke-width: 3; stroke-linecap: round"/>
   </g>
   <g id="line2d_13">
    <path d="M 334.089216 227.576471 
L 336.750336 264.971294 
" clip-path="url(#p864b9a02ab)" style="fill: none; stroke: #00ffff; stroke-width: 3; stroke-linecap: round"/>
   </g>
   <g id="PathCollection_1">
    <defs>
     <path id="m6509f71b87" d="M 0 17.320508 
C 4.593452 17.320508 8.999387 15.49551 12.247449 12.247449 
C 15.49551 8.999387 17.320508 4.593452 17.320508 0 
C 17.320508 -4.593452 15.49551 -8.999387 12.247449 -12.247449 
C 8.999387 -15.49551 4.593452 -17.320508 0 -17.320508 
C -4.593452 -17.320508 -8.999387 -15.49551 -12.247449 -12.247449 
C -15.49551 -8.999387 -17.320508 -4.593452 -17.320508 0 
C -17.320508 4.593452 -15.49551 8.999387 -12.247449 12.247449 
C -8.999387 15.49551 -4.593452 17.320508 0 17.320508 
z
" style="stroke: #08f7fe; stroke-opacity: 0.03"/>
    </defs>
    <g clip-path="url(#p864b9a02ab)">
     <use xlink:href="#m6509f71b87" x="278.205696" y="96.259765" style="fill: #08f7fe; fill-opacity: 0.03; stroke: #08f7fe; stroke-opacity: 0.03"/>
    </g>
   </g>
   <g id="PathCollection_2">
    <defs>
     <path id="m5f457314f8" d="M 0 18.973666 
C 5.031875 18.973666 9.858335 16.974481 13.416408 13.416408 
C 16.974481 9.858335 18.973666 5.031875 18.973666 0 
C 18.973666 -5.031875 16.974481 -9.858335 13.416408 -13.416408 
C 9.858335 -16.974481 5.031875 -18.973666 0 -18.973666 
C -5.031875 -18.973666 -9.858335 -16.974481 -13.416408 -13.416408 
C -16.974481 -9.858335 -18.973666 -5.031875 -18.973666 0 
C -18.973666 5.031875 -16.974481 9.858335 -13.416408 13.416408 
C -9.858335 16.974481 -5.031875 18.973666 0 18.973666 
z
" style="stroke: #fe53bb; stroke-opacity: 0.03"/>
    </defs>
    <g clip-path="url(#p864b9a02ab)">
     <use xlink:href="#m5f457314f8" x="278.205696" y="96.259765" style="fill: #fe53bb; fill-opacity: 0.03; stroke: #fe53bb; stroke-opacity: 0.03"/>
    </g>
   </g>
   <g id="PathCollection_3">
    <defs>
     <path id="m51529ed551" d="M 0 20.78461 
C 5.512143 20.78461 10.799265 18.594612 14.696938 14.696938 
C 18.594612 10.799265 20.78461 5.512143 20.78461 0 
C 20.78461 -5.512143 18.594612 -10.799265 14.696938 -14.696938 
C 10.799265 -18.594612 5.512143 -20.78461 0 -20.78461 
C -5.512143 -20.78461 -10.799265 -18.594612 -14.696938 -14.696938 
C -18.594612 -10.799265 -20.78461 -5.512143 -20.78461 0 
C -20.78461 5.512143 -18.594612 10.799265 -14.696938 14.696938 
C -10.799265 18.594612 -5.512143 20.78461 0 20.78461 
z
" style="stroke: #f5d300; stroke-opacity: 0.03"/>
    </defs>
    <g clip-path="url(#p864b9a02ab)">
     <use xlink:href="#m51529ed551" x="278.205696" y="96.259765" style="fill: #f5d300; fill-opacity: 0.03; stroke: #f5d300; stroke-opacity: 0.03"/>
    </g>
   </g>
   <g id="PathCollection_4">
    <defs>
     <path id="m425a78b8ce" d="M 0 22.768399 
C 6.03825 22.768399 11.830002 20.369377 16.099689 16.099689 
C 20.369377 11.830002 22.768399 6.03825 22.768399 0 
C 22.768399 -6.03825 20.369377 -11.830002 16.099689 -16.099689 
C 11.830002 -20.369377 6.03825 -22.768399 0 -22.768399 
C -6.03825 -22.768399 -11.830002 -20.369377 -16.099689 -16.099689 
C -20.369377 -11.830002 -22.768399 -6.03825 -22.768399 0 
C -22.768399 6.03825 -20.369377 11.830002 -16.099689 16.099689 
C -11.830002 20.369377 -6.03825 22.768399 0 22.768399 
z
" style="stroke: #00ff41; stroke-opacity: 0.03"/>
    </defs>
    <g clip-path="url(#p864b9a02ab)">
     <use xlink:href="#m425a78b8ce" x="278.205696" y="96.259765" style="fill: #00ff41; fill-opacity: 0.03; stroke: #00ff41; stroke-opacity: 0.03"/>
    </g>
   </g>
   <g id="PathCollection_5">
    <defs>
     <path id="m5c50c92cd8" d="M 0 24.941532 
C 6.614572 24.941532 12.959118 22.313535 17.636326 17.636326 
C 22.313535 12.959118 24.941532 6.614572 24.941532 0 
C 24.941532 -6.614572 22.313535 -12.959118 17.636326 -17.636326 
C 12.959118 -22.313535 6.614572 -24.941532 0 -24.941532 
C -6.614572 -24.941532 -12.959118 -22.313535 -17.636326 -17.636326 
C -22.313535 -12.959118 -24.941532 -6.614572 -24.941532 0 
C -24.941532 6.614572 -22.313535 12.959118 -17.636326 17.636326 
C -12.959118 22.313535 -6.614572 24.941532 0 24.941532 
z
" style="stroke: #ff0000; stroke-opacity: 0.03"/>
    </defs>
    <g clip-path="url(#p864b9a02ab)">
     <use xlink:href="#m5c50c92cd8" x="278.205696" y="96.259765" style="fill: #ff0000; fill-opacity: 0.03; stroke: #ff0000; stroke-opacity: 0.03"/>
    </g>
   </g>
   <g id="PathCollection_6">
    <defs>
     <path id="m79f19b0f49" d="M 0 27.322079 
C 7.2459 27.322079 14.196002 24.443252 19.319627 19.319627 
C 24.443252 14.196002 27.322079 7.2459 27.322079 0 
C 27.322079 -7.2459 24.443252 -14.196002 19.319627 -19.319627 
C 14.196002 -24.443252 7.2459 -27.322079 0 -27.322079 
C -7.2459 -27.322079 -14.196002 -24.443252 -19.319627 -19.319627 
C -24.443252 -14.196002 -27.322079 -7.2459 -27.322079 0 
C -27.322079 7.2459 -24.443252 14.196002 -19.319627 19.319627 
C -14.196002 24.443252 -7.2459 27.322079 0 27.322079 
z
" style="stroke: #9467bd; stroke-opacity: 0.03"/>
    </defs>
    <g clip-path="url(#p864b9a02ab)">
     <use xlink:href="#m79f19b0f49" x="278.205696" y="96.259765" style="fill: #9467bd; fill-opacity: 0.03; stroke: #9467bd; stroke-opacity: 0.03"/>
    </g>
   </g>
   <g id="PathCollection_7">
    <defs>
     <path id="m6f91c63ffc" d="M 0 29.929838 
C 7.937486 29.929838 15.550941 26.776241 21.163591 21.163591 
C 26.776241 15.550941 29.929838 7.937486 29.929838 0 
C 29.929838 -7.937486 26.776241 -15.550941 21.163591 -21.163591 
C 15.550941 -26.776241 7.937486 -29.929838 0 -29.929838 
C -7.937486 -29.929838 -15.550941 -26.776241 -21.163591 -21.163591 
C -26.776241 -15.550941 -29.929838 -7.937486 -29.929838 0 
C -29.929838 7.937486 -26.776241 15.550941 -21.163591 21.163591 
C -15.550941 26.776241 -7.937486 29.929838 0 29.929838 
z
" style="stroke: #08f7fe; stroke-opacity: 0.03"/>
    </defs>
    <g clip-path="url(#p864b9a02ab)">
     <use xlink:href="#m6f91c63ffc" x="278.205696" y="96.259765" style="fill: #08f7fe; fill-opacity: 0.03; stroke: #08f7fe; stroke-opacity: 0.03"/>
    </g>
   </g>
   <g id="PathCollection_8">
    <defs>
     <path id="m19411e1b3f" d="M 0 32.786495 
C 8.69508 32.786495 17.035203 29.331903 23.183553 23.183553 
C 29.331903 17.035203 32.786495 8.69508 32.786495 0 
C 32.786495 -8.69508 29.331903 -17.035203 23.183553 -23.183553 
C 17.035203 -29.331903 8.69508 -32.786495 0 -32.786495 
C -8.69508 -32.786495 -17.035203 -29.331903 -23.183553 -23.183553 
C -29.331903 -17.035203 -32.786495 -8.69508 -32.786495 0 
C -32.786495 8.69508 -29.331903 17.035203 -23.183553 23.183553 
C -17.035203 29.331903 -8.69508 32.786495 0 32.786495 
z
" style="stroke: #fe53bb; stroke-opacity: 0.03"/>
    </defs>
    <g clip-path="url(#p864b9a02ab)">
     <use xlink:href="#m19411e1b3f" x="278.205696" y="96.259765" style="fill: #fe53bb; fill-opacity: 0.03; stroke: #fe53bb; stroke-opacity: 0.03"/>
    </g>
   </g>
   <g id="PathCollection_9">
    <defs>
     <path id="me862c8e184" d="M 0 35.915806 
C 9.524983 35.915806 18.66113 32.13149 25.39631 25.39631 
C 32.13149 18.66113 35.915806 9.524983 35.915806 0 
C 35.915806 -9.524983 32.13149 -18.66113 25.39631 -25.39631 
C 18.66113 -32.13149 9.524983 -35.915806 0 -35.915806 
C -9.524983 -35.915806 -18.66113 -32.13149 -25.39631 -25.39631 
C -32.13149 -18.66113 -35.915806 -9.524983 -35.915806 0 
C -35.915806 9.524983 -32.13149 18.66113 -25.39631 25.39631 
C -18.66113 32.13149 -9.524983 35.915806 0 35.915806 
z
" style="stroke: #f5d300; stroke-opacity: 0.03"/>
    </defs>
    <g clip-path="url(#p864b9a02ab)">
     <use xlink:href="#me862c8e184" x="278.205696" y="96.259765" style="fill: #f5d300; fill-opacity: 0.03; stroke: #f5d300; stroke-opacity: 0.03"/>
    </g>
   </g>
   <g id="line2d_14">
    <path d="M 251.062272 120.609882 
L 284.592384 91.476706 
" clip-path="url(#p864b9a02ab)" style="fill: none; stroke: #00ffff; stroke-opacity: 0.03; stroke-width: 4.05; stroke-linecap: round"/>
   </g>
   <g id="line2d_15">
    <path d="M 251.062272 120.609882 
L 284.592384 91.476706 
" clip-path="url(#p864b9a02ab)" style="fill: none; stroke: #00ffff; stroke-opacity: 0.03; stroke-width: 5.1; stroke-linecap: round"/>
   </g>
   <g id="line2d_16">
    <path d="M 251.062272 120.609882 
L 284.592384 91.476706 
" clip-path="url(#p864b9a02ab)" style="fill: none; stroke: #00ffff; stroke-opacity: 0.03; stroke-width: 6.15; stroke-linecap: round"/>
   </g>
   <g id="line2d_17">
    <path d="M 251.062272 120.609882 
L 284.592384 91.476706 
" clip-path="url(#p864b9a02ab)" style="fill: none; stroke: #00ffff; stroke-opacity: 0.03; stroke-width: 7.2; stroke-linecap: round"/>
   </g>
   <g id="line2d_18">
    <path d="M 251.062272 120.609882 
L 284.592384 91.476706 
" clip-path="url(#p864b9a02ab)" style="fill: none; stroke: #00ffff; stroke-opacity: 0.03; stroke-width: 8.25; stroke-linecap: round"/>
   </g>
   <g id="line2d_19">
    <path d="M 251.062272 120.609882 
L 284.592384 91.476706 
" clip-path="url(#p864b9a02ab)" style="fill: none; stroke: #00ffff; stroke-opacity: 0.03; stroke-width: 9.3; stroke-linecap: round"/>
   </g>
   <g id="line2d_20">
    <path d="M 251.062272 120.609882 
L 284.592384 91.476706 
" clip-path="url(#p864b9a02ab)" style="fill: none; stroke: #00ffff; stroke-opacity: 0.03; stroke-width: 10.35; stroke-linecap: round"/>
   </g>
   <g id="line2d_21">
    <path d="M 251.062272 120.609882 
L 284.592384 91.476706 
" clip-path="url(#p864b9a02ab)" style="fill: none; stroke: #00ffff; stroke-opacity: 0.03; stroke-width: 11.4; stroke-linecap: round"/>
   </g>
   <g id="line2d_22">
    <path d="M 251.062272 120.609882 
L 284.592384 91.476706 
" clip-path="url(#p864b9a02ab)" style="fill: none; stroke: #00ffff; stroke-opacity: 0.03; stroke-width: 12.45; stroke-linecap: round"/>
   </g>
   <g id="line2d_23">
    <path d="M 251.062272 120.609882 
L 284.592384 91.476706 
" clip-path="url(#p864b9a02ab)" style="fill: none; stroke: #00ffff; stroke-opacity: 0.03; stroke-width: 13.5; stroke-linecap: round"/>
   </g>
   <g id="line2d_24">
    <path d="M 302.155776 121.479529 
L 284.592384 91.476706 
" clip-path="url(#p864b9a02ab)" style="fill: none; stroke: #00ffff; stroke-opacity: 0.03; stroke-width: 4.05; stroke-linecap: round"/>
   </g>
   <g id="line2d_25">
    <path d="M 302.155776 121.479529 
L 284.592384 91.476706 
" clip-path="url(#p864b9a02ab)" style="fill: none; stroke: #00ffff; stroke-opacity: 0.03; stroke-width: 5.1; stroke-linecap: round"/>
   </g>
   <g id="line2d_26">
    <path d="M 302.155776 121.479529 
L 284.592384 91.476706 
" clip-path="url(#p864b9a02ab)" style="fill: none; stroke: #00ffff; stroke-opacity: 0.03; stroke-width: 6.15; stroke-linecap: round"/>
   </g>
   <g id="line2d_27">
    <path d="M 302.155776 121.479529 
L 284.592384 91.476706 
" clip-path="url(#p864b9a02ab)" style="fill: none; stroke: #00ffff; stroke-opacity: 0.03; stroke-width: 7.2; stroke-linecap: round"/>
   </g>
   <g id="line2d_28">
    <path d="M 302.155776 121.479529 
L 284.592384 91.476706 
" clip-path="url(#p864b9a02ab)" style="fill: none; stroke: #00ffff; stroke-opacity: 0.03; stroke-width: 8.25; stroke-linecap: round"/>
   </g>
   <g id="line2d_29">
    <path d="M 302.155776 121.479529 
L 284.592384 91.476706 
" clip-path="url(#p864b9a02ab)" style="fill: none; stroke: #00ffff; stroke-opacity: 0.03; stroke-width: 9.3; stroke-linecap: round"/>
   </g>
   <g id="line2d_30">
    <path d="M 302.155776 121.479529 
L 284.592384 91.476706 
" clip-path="url(#p864b9a02ab)" style="fill: none; stroke: #00ffff; stroke-opacity: 0.03; stroke-width: 10.35; stroke-linecap: round"/>
   </g>
   <g id="line2d_31">
    <path d="M 302.155776 121.479529 
L 284.592384 91.476706 
" clip-path="url(#p864b9a02ab)" style="fill: none; stroke: #00ffff; stroke-opacity: 0.03; stroke-width: 11.4; stroke-linecap: round"/>
   </g>
   <g id="line2d_32">
    <path d="M 302.155776 121.479529 
L 284.592384 91.476706 
" clip-path="url(#p864b9a02ab)" style="fill: none; stroke: #00ffff; stroke-opacity: 0.03; stroke-width: 12.45; stroke-linecap: round"/>
   </g>
   <g id="line2d_33">
    <path d="M 302.155776 121.479529 
L 284.592384 91.476706 
" clip-path="url(#p864b9a02ab)" style="fill: none; stroke: #00ffff; stroke-opacity: 0.03; stroke-width: 13.5; stroke-linecap: round"/>
   </g>
   <g id="line2d_34">
    <path d="M 251.062272 120.609882 
L 212.742144 124.523294 
" clip-path="url(#p864b9a02ab)" style="fill: none; stroke: #00ffff; stroke-opacity: 0.03; stroke-width: 4.05; stroke-linecap: round"/>
   </g>
   <g id="line2d_35">
    <path d="M 251.062272 120.609882 
L 212.742144 124.523294 
" clip-path="url(#p864b9a02ab)" style="fill: none; stroke: #00ffff; stroke-opacity: 0.03; stroke-width: 5.1; stroke-linecap: round"/>
   </g>
   <g id="line2d_36">
    <path d="M 251.062272 120.609882 
L 212.742144 124.523294 
" clip-path="url(#p864b9a02ab)" style="fill: none; stroke: #00ffff; stroke-opacity: 0.03; stroke-width: 6.15; stroke-linecap: round"/>
   </g>
   <g id="line2d_37">
    <path d="M 251.062272 120.609882 
L 212.742144 124.523294 
" clip-path="url(#p864b9a02ab)" style="fill: none; stroke: #00ffff; stroke-opacity: 0.03; stroke-width: 7.2; stroke-linecap: round"/>
   </g>
   <g id="line2d_38">
    <path d="M 251.062272 120.609882 
L 212.742144 124.523294 
" clip-path="url(#p864b9a02ab)" style="fill: none; stroke: #00ffff; stroke-opacity: 0.03; stroke-width: 8.25; stroke-linecap: round"/>
   </g>
   <g id="line2d_39">
    <path d="M 251.062272 120.609882 
L 212.742144 124.523294 
" clip-path="url(#p864b9a02ab)" style="fill: none; stroke: #00ffff; stroke-opacity: 0.03; stroke-width: 9.3; stroke-linecap: round"/>
   </g>
   <g id="line2d_40">
    <path d="M 251.062272 120.609882 
L 212.742144 124.523294 
" clip-path="url(#p864b9a02ab)" style="fill: none; stroke: #00ffff; stroke-opacity: 0.03; stroke-width: 10.35; stroke-linecap: round"/>
   </g>
   <g id="line2d_41">
    <path d="M 251.062272 120.609882 
L 212.742144 124.523294 
" clip-path="url(#p864b9a02ab)" style="fill: none; stroke: #00ffff; stroke-opacity: 0.03; stroke-width: 11.4; stroke-linecap: round"/>
   </g>
   <g id="line2d_42">
    <path d="M 251.062272 120.609882 
L 212.742144 124.523294 
" clip-path="url(#p864b9a02ab)" style="fill: none; stroke: #00ffff; stroke-opacity: 0.03; stroke-width: 12.45; stroke-linecap: round"/>
   </g>
   <g id="line2d_43">
    <path d="M 251.062272 120.609882 
L 212.742144 124.523294 
" clip-path="url(#p864b9a02ab)" style="fill: none; stroke: #00ffff; stroke-opacity: 0.03; stroke-width: 13.5; stroke-linecap: round"/>
   </g>
   <g id="line2d_44">
    <path d="M 212.742144 124.523294 
L 199.968768 94.955294 
" clip-path="url(#p864b9a02ab)" style="fill: none; stroke: #00ffff; stroke-opacity: 0.03; stroke-width: 4.05; stroke-linecap: round"/>
   </g>
   <g id="line2d_45">
    <path d="M 212.742144 124.523294 
L 199.968768 94.955294 
" clip-path="url(#p864b9a02ab)" style="fill: none; stroke: #00ffff; stroke-opacity: 0.03; stroke-width: 5.1; stroke-linecap: round"/>
   </g>
   <g id="line2d_46">
    <path d="M 212.742144 124.523294 
L 199.968768 94.955294 
" clip-path="url(#p864b9a02ab)" style="fill: none; stroke: #00ffff; stroke-opacity: 0.03; stroke-width: 6.15; stroke-linecap: round"/>
   </g>
   <g id="line2d_47">
    <path d="M 212.742144 124.523294 
L 199.968768 94.955294 
" clip-path="url(#p864b9a02ab)" style="fill: none; stroke: #00ffff; stroke-opacity: 0.03; stroke-width: 7.2; stroke-linecap: round"/>
   </g>
   <g id="line2d_48">
    <path d="M 212.742144 124.523294 
L 199.968768 94.955294 
" clip-path="url(#p864b9a02ab)" style="fill: none; stroke: #00ffff; stroke-opacity: 0.03; stroke-width: 8.25; stroke-linecap: round"/>
   </g>
   <g id="line2d_49">
    <path d="M 212.742144 124.523294 
L 199.968768 94.955294 
" clip-path="url(#p864b9a02ab)" style="fill: none; stroke: #00ffff; stroke-opacity: 0.03; stroke-width: 9.3; stroke-linecap: round"/>
   </g>
   <g id="line2d_50">
    <path d="M 212.742144 124.523294 
L 199.968768 94.955294 
" clip-path="url(#p864b9a02ab)" style="fill: none; stroke: #00ffff; stroke-opacity: 0.03; stroke-width: 10.35; stroke-linecap: round"/>
   </g>
   <g id="line2d_51">
    <path d="M 212.742144 124.523294 
L 199.968768 94.955294 
" clip-path="url(#p864b9a02ab)" style="fill: none; stroke: #00ffff; stroke-opacity: 0.03; stroke-width: 11.4; stroke-linecap: round"/>
   </g>
   <g id="line2d_52">
    <path d="M 212.742144 124.523294 
L 199.968768 94.955294 
" clip-path="url(#p864b9a02ab)" style="fill: none; stroke: #00ffff; stroke-opacity: 0.03; stroke-width: 12.45; stroke-linecap: round"/>
   </g>
   <g id="line2d_53">
    <path d="M 212.742144 124.523294 
L 199.968768 94.955294 
" clip-path="url(#p864b9a02ab)" style="fill: none; stroke: #00ffff; stroke-opacity: 0.03; stroke-width: 13.5; stroke-linecap: round"/>
   </g>
   <g id="line2d_54">
    <path d="M 302.155776 121.479529 
L 345.26592 125.392941 
" clip-path="url(#p864b9a02ab)" style="fill: none; stroke: #00ffff; stroke-opacity: 0.03; stroke-width: 4.05; stroke-linecap: round"/>
   </g>
   <g id="line2d_55">
    <path d="M 302.155776 121.479529 
L 345.26592 125.392941 
" clip-path="url(#p864b9a02ab)" style="fill: none; stroke: #00ffff; stroke-opacity: 0.03; stroke-width: 5.1; stroke-linecap: round"/>
   </g>
   <g id="line2d_56">
    <path d="M 302.155776 121.479529 
L 345.26592 125.392941 
" clip-path="url(#p864b9a02ab)" style="fill: none; stroke: #00ffff; stroke-opacity: 0.03; stroke-width: 6.15; stroke-linecap: round"/>
   </g>
   <g id="line2d_57">
    <path d="M 302.155776 121.479529 
L 345.26592 125.392941 
" clip-path="url(#p864b9a02ab)" style="fill: none; stroke: #00ffff; stroke-opacity: 0.03; stroke-width: 7.2; stroke-linecap: round"/>
   </g>
   <g id="line2d_58">
    <path d="M 302.155776 121.479529 
L 345.26592 125.392941 
" clip-path="url(#p864b9a02ab)" style="fill: none; stroke: #00ffff; stroke-opacity: 0.03; stroke-width: 8.25; stroke-linecap: round"/>
   </g>
   <g id="line2d_59">
    <path d="M 302.155776 121.479529 
L 345.26592 125.392941 
" clip-path="url(#p864b9a02ab)" style="fill: none; stroke: #00ffff; stroke-opacity: 0.03; stroke-width: 9.3; stroke-linecap: round"/>
   </g>
   <g id="line2d_60">
    <path d="M 302.155776 121.479529 
L 345.26592 125.392941 
" clip-path="url(#p864b9a02ab)" style="fill: none; stroke: #00ffff; stroke-opacity: 0.03; stroke-width: 10.35; stroke-linecap: round"/>
   </g>
   <g id="line2d_61">
    <path d="M 302.155776 121.479529 
L 345.26592 125.392941 
" clip-path="url(#p864b9a02ab)" style="fill: none; stroke: #00ffff; stroke-opacity: 0.03; stroke-width: 11.4; stroke-linecap: round"/>
   </g>
   <g id="line2d_62">
    <path d="M 302.155776 121.479529 
L 345.26592 125.392941 
" clip-path="url(#p864b9a02ab)" style="fill: none; stroke: #00ffff; stroke-opacity: 0.03; stroke-width: 12.45; stroke-linecap: round"/>
   </g>
   <g id="line2d_63">
    <path d="M 302.155776 121.479529 
L 345.26592 125.392941 
" clip-path="url(#p864b9a02ab)" style="fill: none; stroke: #00ffff; stroke-opacity: 0.03; stroke-width: 13.5; stroke-linecap: round"/>
   </g>
   <g id="line2d_64">
    <path d="M 345.26592 125.392941 
L 358.039296 96.694588 
" clip-path="url(#p864b9a02ab)" style="fill: none; stroke: #00ffff; stroke-opacity: 0.03; stroke-width: 4.05; stroke-linecap: round"/>
   </g>
   <g id="line2d_65">
    <path d="M 345.26592 125.392941 
L 358.039296 96.694588 
" clip-path="url(#p864b9a02ab)" style="fill: none; stroke: #00ffff; stroke-opacity: 0.03; stroke-width: 5.1; stroke-linecap: round"/>
   </g>
   <g id="line2d_66">
    <path d="M 345.26592 125.392941 
L 358.039296 96.694588 
" clip-path="url(#p864b9a02ab)" style="fill: none; stroke: #00ffff; stroke-opacity: 0.03; stroke-width: 6.15; stroke-linecap: round"/>
   </g>
   <g id="line2d_67">
    <path d="M 345.26592 125.392941 
L 358.039296 96.694588 
" clip-path="url(#p864b9a02ab)" style="fill: none; stroke: #00ffff; stroke-opacity: 0.03; stroke-width: 7.2; stroke-linecap: round"/>
   </g>
   <g id="line2d_68">
    <path d="M 345.26592 125.392941 
L 358.039296 96.694588 
" clip-path="url(#p864b9a02ab)" style="fill: none; stroke: #00ffff; stroke-opacity: 0.03; stroke-width: 8.25; stroke-linecap: round"/>
   </g>
   <g id="line2d_69">
    <path d="M 345.26592 125.392941 
L 358.039296 96.694588 
" clip-path="url(#p864b9a02ab)" style="fill: none; stroke: #00ffff; stroke-opacity: 0.03; stroke-width: 9.3; stroke-linecap: round"/>
   </g>
   <g id="line2d_70">
    <path d="M 345.26592 125.392941 
L 358.039296 96.694588 
" clip-path="url(#p864b9a02ab)" style="fill: none; stroke: #00ffff; stroke-opacity: 0.03; stroke-width: 10.35; stroke-linecap: round"/>
   </g>
   <g id="line2d_71">
    <path d="M 345.26592 125.392941 
L 358.039296 96.694588 
" clip-path="url(#p864b9a02ab)" style="fill: none; stroke: #00ffff; stroke-opacity: 0.03; stroke-width: 11.4; stroke-linecap: round"/>
   </g>
   <g id="line2d_72">
    <path d="M 345.26592 125.392941 
L 358.039296 96.694588 
" clip-path="url(#p864b9a02ab)" style="fill: none; stroke: #00ffff; stroke-opacity: 0.03; stroke-width: 12.45; stroke-linecap: round"/>
   </g>
   <g id="line2d_73">
    <path d="M 345.26592 125.392941 
L 358.039296 96.694588 
" clip-path="url(#p864b9a02ab)" style="fill: none; stroke: #00ffff; stroke-opacity: 0.03; stroke-width: 13.5; stroke-linecap: round"/>
   </g>
   <g id="line2d_74">
    <path d="M 251.062272 120.609882 
L 256.384512 185.398588 
" clip-path="url(#p864b9a02ab)" style="fill: none; stroke: #00ffff; stroke-opacity: 0.03; stroke-width: 4.05; stroke-linecap: round"/>
   </g>
   <g id="line2d_75">
    <path d="M 251.062272 120.609882 
L 256.384512 185.398588 
" clip-path="url(#p864b9a02ab)" style="fill: none; stroke: #00ffff; stroke-opacity: 0.03; stroke-width: 5.1; stroke-linecap: round"/>
   </g>
   <g id="line2d_76">
    <path d="M 251.062272 120.609882 
L 256.384512 185.398588 
" clip-path="url(#p864b9a02ab)" style="fill: none; stroke: #00ffff; stroke-opacity: 0.03; stroke-width: 6.15; stroke-linecap: round"/>
   </g>
   <g id="line2d_77">
    <path d="M 251.062272 120.609882 
L 256.384512 185.398588 
" clip-path="url(#p864b9a02ab)" style="fill: none; stroke: #00ffff; stroke-opacity: 0.03; stroke-width: 7.2; stroke-linecap: round"/>
   </g>
   <g id="line2d_78">
    <path d="M 251.062272 120.609882 
L 256.384512 185.398588 
" clip-path="url(#p864b9a02ab)" style="fill: none; stroke: #00ffff; stroke-opacity: 0.03; stroke-width: 8.25; stroke-linecap: round"/>
   </g>
   <g id="line2d_79">
    <path d="M 251.062272 120.609882 
L 256.384512 185.398588 
" clip-path="url(#p864b9a02ab)" style="fill: none; stroke: #00ffff; stroke-opacity: 0.03; stroke-width: 9.3; stroke-linecap: round"/>
   </g>
   <g id="line2d_80">
    <path d="M 251.062272 120.609882 
L 256.384512 185.398588 
" clip-path="url(#p864b9a02ab)" style="fill: none; stroke: #00ffff; stroke-opacity: 0.03; stroke-width: 10.35; stroke-linecap: round"/>
   </g>
   <g id="line2d_81">
    <path d="M 251.062272 120.609882 
L 256.384512 185.398588 
" clip-path="url(#p864b9a02ab)" style="fill: none; stroke: #00ffff; stroke-opacity: 0.03; stroke-width: 11.4; stroke-linecap: round"/>
   </g>
   <g id="line2d_82">
    <path d="M 251.062272 120.609882 
L 256.384512 185.398588 
" clip-path="url(#p864b9a02ab)" style="fill: none; stroke: #00ffff; stroke-opacity: 0.03; stroke-width: 12.45; stroke-linecap: round"/>
   </g>
   <g id="line2d_83">
    <path d="M 251.062272 120.609882 
L 256.384512 185.398588 
" clip-path="url(#p864b9a02ab)" style="fill: none; stroke: #00ffff; stroke-opacity: 0.03; stroke-width: 13.5; stroke-linecap: round"/>
   </g>
   <g id="line2d_84">
    <path d="M 302.155776 121.479529 
L 292.575744 185.398588 
" clip-path="url(#p864b9a02ab)" style="fill: none; stroke: #00ffff; stroke-opacity: 0.03; stroke-width: 4.05; stroke-linecap: round"/>
   </g>
   <g id="line2d_85">
    <path d="M 302.155776 121.479529 
L 292.575744 185.398588 
" clip-path="url(#p864b9a02ab)" style="fill: none; stroke: #00ffff; stroke-opacity: 0.03; stroke-width: 5.1; stroke-linecap: round"/>
   </g>
   <g id="line2d_86">
    <path d="M 302.155776 121.479529 
L 292.575744 185.398588 
" clip-path="url(#p864b9a02ab)" style="fill: none; stroke: #00ffff; stroke-opacity: 0.03; stroke-width: 6.15; stroke-linecap: round"/>
   </g>
   <g id="line2d_87">
    <path d="M 302.155776 121.479529 
L 292.575744 185.398588 
" clip-path="url(#p864b9a02ab)" style="fill: none; stroke: #00ffff; stroke-opacity: 0.03; stroke-width: 7.2; stroke-linecap: round"/>
   </g>
   <g id="line2d_88">
    <path d="M 302.155776 121.479529 
L 292.575744 185.398588 
" clip-path="url(#p864b9a02ab)" style="fill: none; stroke: #00ffff; stroke-opacity: 0.03; stroke-width: 8.25; stroke-linecap: round"/>
   </g>
   <g id="line2d_89">
    <path d="M 302.155776 121.479529 
L 292.575744 185.398588 
" clip-path="url(#p864b9a02ab)" style="fill: none; stroke: #00ffff; stroke-opacity: 0.03; stroke-width: 9.3; stroke-linecap: round"/>
   </g>
   <g id="line2d_90">
    <path d="M 302.155776 121.479529 
L 292.575744 185.398588 
" clip-path="url(#p864b9a02ab)" style="fill: none; stroke: #00ffff; stroke-opacity: 0.03; stroke-width: 10.35; stroke-linecap: round"/>
   </g>
   <g id="line2d_91">
    <path d="M 302.155776 121.479529 
L 292.575744 185.398588 
" clip-path="url(#p864b9a02ab)" style="fill: none; stroke: #00ffff; stroke-opacity: 0.03; stroke-width: 11.4; stroke-linecap: round"/>
   </g>
   <g id="line2d_92">
    <path d="M 302.155776 121.479529 
L 292.575744 185.398588 
" clip-path="url(#p864b9a02ab)" style="fill: none; stroke: #00ffff; stroke-opacity: 0.03; stroke-width: 12.45; stroke-linecap: round"/>
   </g>
   <g id="line2d_93">
    <path d="M 302.155776 121.479529 
L 292.575744 185.398588 
" clip-path="url(#p864b9a02ab)" style="fill: none; stroke: #00ffff; stroke-opacity: 0.03; stroke-width: 13.5; stroke-linecap: round"/>
   </g>
   <g id="line2d_94">
    <path d="M 256.384512 185.398588 
L 220.19328 228.011294 
" clip-path="url(#p864b9a02ab)" style="fill: none; stroke: #00ffff; stroke-opacity: 0.03; stroke-width: 4.05; stroke-linecap: round"/>
   </g>
   <g id="line2d_95">
    <path d="M 256.384512 185.398588 
L 220.19328 228.011294 
" clip-path="url(#p864b9a02ab)" style="fill: none; stroke: #00ffff; stroke-opacity: 0.03; stroke-width: 5.1; stroke-linecap: round"/>
   </g>
   <g id="line2d_96">
    <path d="M 256.384512 185.398588 
L 220.19328 228.011294 
" clip-path="url(#p864b9a02ab)" style="fill: none; stroke: #00ffff; stroke-opacity: 0.03; stroke-width: 6.15; stroke-linecap: round"/>
   </g>
   <g id="line2d_97">
    <path d="M 256.384512 185.398588 
L 220.19328 228.011294 
" clip-path="url(#p864b9a02ab)" style="fill: none; stroke: #00ffff; stroke-opacity: 0.03; stroke-width: 7.2; stroke-linecap: round"/>
   </g>
   <g id="line2d_98">
    <path d="M 256.384512 185.398588 
L 220.19328 228.011294 
" clip-path="url(#p864b9a02ab)" style="fill: none; stroke: #00ffff; stroke-opacity: 0.03; stroke-width: 8.25; stroke-linecap: round"/>
   </g>
   <g id="line2d_99">
    <path d="M 256.384512 185.398588 
L 220.19328 228.011294 
" clip-path="url(#p864b9a02ab)" style="fill: none; stroke: #00ffff; stroke-opacity: 0.03; stroke-width: 9.3; stroke-linecap: round"/>
   </g>
   <g id="line2d_100">
    <path d="M 256.384512 185.398588 
L 220.19328 228.011294 
" clip-path="url(#p864b9a02ab)" style="fill: none; stroke: #00ffff; stroke-opacity: 0.03; stroke-width: 10.35; stroke-linecap: round"/>
   </g>
   <g id="line2d_101">
    <path d="M 256.384512 185.398588 
L 220.19328 228.011294 
" clip-path="url(#p864b9a02ab)" style="fill: none; stroke: #00ffff; stroke-opacity: 0.03; stroke-width: 11.4; stroke-linecap: round"/>
   </g>
   <g id="line2d_102">
    <path d="M 256.384512 185.398588 
L 220.19328 228.011294 
" clip-path="url(#p864b9a02ab)" style="fill: none; stroke: #00ffff; stroke-opacity: 0.03; stroke-width: 12.45; stroke-linecap: round"/>
   </g>
   <g id="line2d_103">
    <path d="M 256.384512 185.398588 
L 220.19328 228.011294 
" clip-path="url(#p864b9a02ab)" style="fill: none; stroke: #00ffff; stroke-opacity: 0.03; stroke-width: 13.5; stroke-linecap: round"/>
   </g>
   <g id="line2d_104">
    <path d="M 220.19328 228.011294 
L 216.999936 265.406118 
" clip-path="url(#p864b9a02ab)" style="fill: none; stroke: #00ffff; stroke-opacity: 0.03; stroke-width: 4.05; stroke-linecap: round"/>
   </g>
   <g id="line2d_105">
    <path d="M 220.19328 228.011294 
L 216.999936 265.406118 
" clip-path="url(#p864b9a02ab)" style="fill: none; stroke: #00ffff; stroke-opacity: 0.03; stroke-width: 5.1; stroke-linecap: round"/>
   </g>
   <g id="line2d_106">
    <path d="M 220.19328 228.011294 
L 216.999936 265.406118 
" clip-path="url(#p864b9a02ab)" style="fill: none; stroke: #00ffff; stroke-opacity: 0.03; stroke-width: 6.15; stroke-linecap: round"/>
   </g>
   <g id="line2d_107">
    <path d="M 220.19328 228.011294 
L 216.999936 265.406118 
" clip-path="url(#p864b9a02ab)" style="fill: none; stroke: #00ffff; stroke-opacity: 0.03; stroke-width: 7.2; stroke-linecap: round"/>
   </g>
   <g id="line2d_108">
    <path d="M 220.19328 228.011294 
L 216.999936 265.406118 
" clip-path="url(#p864b9a02ab)" style="fill: none; stroke: #00ffff; stroke-opacity: 0.03; stroke-width: 8.25; stroke-linecap: round"/>
   </g>
   <g id="line2d_109">
    <path d="M 220.19328 228.011294 
L 216.999936 265.406118 
" clip-path="url(#p864b9a02ab)" style="fill: none; stroke: #00ffff; stroke-opacity: 0.03; stroke-width: 9.3; stroke-linecap: round"/>
   </g>
   <g id="line2d_110">
    <path d="M 220.19328 228.011294 
L 216.999936 265.406118 
" clip-path="url(#p864b9a02ab)" style="fill: none; stroke: #00ffff; stroke-opacity: 0.03; stroke-width: 10.35; stroke-linecap: round"/>
   </g>
   <g id="line2d_111">
    <path d="M 220.19328 228.011294 
L 216.999936 265.406118 
" clip-path="url(#p864b9a02ab)" style="fill: none; stroke: #00ffff; stroke-opacity: 0.03; stroke-width: 11.4; stroke-linecap: round"/>
   </g>
   <g id="line2d_112">
    <path d="M 220.19328 228.011294 
L 216.999936 265.406118 
" clip-path="url(#p864b9a02ab)" style="fill: none; stroke: #00ffff; stroke-opacity: 0.03; stroke-width: 12.45; stroke-linecap: round"/>
   </g>
   <g id="line2d_113">
    <path d="M 220.19328 228.011294 
L 216.999936 265.406118 
" clip-path="url(#p864b9a02ab)" style="fill: none; stroke: #00ffff; stroke-opacity: 0.03; stroke-width: 13.5; stroke-linecap: round"/>
   </g>
   <g id="line2d_114">
    <path d="M 256.384512 185.398588 
L 292.575744 185.398588 
" clip-path="url(#p864b9a02ab)" style="fill: none; stroke: #00ffff; stroke-opacity: 0.03; stroke-width: 4.05; stroke-linecap: round"/>
   </g>
   <g id="line2d_115">
    <path d="M 256.384512 185.398588 
L 292.575744 185.398588 
" clip-path="url(#p864b9a02ab)" style="fill: none; stroke: #00ffff; stroke-opacity: 0.03; stroke-width: 5.1; stroke-linecap: round"/>
   </g>
   <g id="line2d_116">
    <path d="M 256.384512 185.398588 
L 292.575744 185.398588 
" clip-path="url(#p864b9a02ab)" style="fill: none; stroke: #00ffff; stroke-opacity: 0.03; stroke-width: 6.15; stroke-linecap: round"/>
   </g>
   <g id="line2d_117">
    <path d="M 256.384512 185.398588 
L 292.575744 185.398588 
" clip-path="url(#p864b9a02ab)" style="fill: none; stroke: #00ffff; stroke-opacity: 0.03; stroke-width: 7.2; stroke-linecap: round"/>
   </g>
   <g id="line2d_118">
    <path d="M 256.384512 185.398588 
L 292.575744 185.398588 
" clip-path="url(#p864b9a02ab)" style="fill: none; stroke: #00ffff; stroke-opacity: 0.03; stroke-width: 8.25; stroke-linecap: round"/>
   </g>
   <g id="line2d_119">
    <path d="M 256.384512 185.398588 
L 292.575744 185.398588 
" clip-path="url(#p864b9a02ab)" style="fill: none; stroke: #00ffff; stroke-opacity: 0.03; stroke-width: 9.3; stroke-linecap: round"/>
   </g>
   <g id="line2d_120">
    <path d="M 256.384512 185.398588 
L 292.575744 185.398588 
" clip-path="url(#p864b9a02ab)" style="fill: none; stroke: #00ffff; stroke-opacity: 0.03; stroke-width: 10.35; stroke-linecap: round"/>
   </g>
   <g id="line2d_121">
    <path d="M 256.384512 185.398588 
L 292.575744 185.398588 
" clip-path="url(#p864b9a02ab)" style="fill: none; stroke: #00ffff; stroke-opacity: 0.03; stroke-width: 11.4; stroke-linecap: round"/>
   </g>
   <g id="line2d_122">
    <path d="M 256.384512 185.398588 
L 292.575744 185.398588 
" clip-path="url(#p864b9a02ab)" style="fill: none; stroke: #00ffff; stroke-opacity: 0.03; stroke-width: 12.45; stroke-linecap: round"/>
   </g>
   <g id="line2d_123">
    <path d="M 256.384512 185.398588 
L 292.575744 185.398588 
" clip-path="url(#p864b9a02ab)" style="fill: none; stroke: #00ffff; stroke-opacity: 0.03; stroke-width: 13.5; stroke-linecap: round"/>
   </g>
   <g id="line2d_124">
    <path d="M 292.575744 185.398588 
L 334.089216 227.576471 
" clip-path="url(#p864b9a02ab)" style="fill: none; stroke: #00ffff; stroke-opacity: 0.03; stroke-width: 4.05; stroke-linecap: round"/>
   </g>
   <g id="line2d_125">
    <path d="M 292.575744 185.398588 
L 334.089216 227.576471 
" clip-path="url(#p864b9a02ab)" style="fill: none; stroke: #00ffff; stroke-opacity: 0.03; stroke-width: 5.1; stroke-linecap: round"/>
   </g>
   <g id="line2d_126">
    <path d="M 292.575744 185.398588 
L 334.089216 227.576471 
" clip-path="url(#p864b9a02ab)" style="fill: none; stroke: #00ffff; stroke-opacity: 0.03; stroke-width: 6.15; stroke-linecap: round"/>
   </g>
   <g id="line2d_127">
    <path d="M 292.575744 185.398588 
L 334.089216 227.576471 
" clip-path="url(#p864b9a02ab)" style="fill: none; stroke: #00ffff; stroke-opacity: 0.03; stroke-width: 7.2; stroke-linecap: round"/>
   </g>
   <g id="line2d_128">
    <path d="M 292.575744 185.398588 
L 334.089216 227.576471 
" clip-path="url(#p864b9a02ab)" style="fill: none; stroke: #00ffff; stroke-opacity: 0.03; stroke-width: 8.25; stroke-linecap: round"/>
   </g>
   <g id="line2d_129">
    <path d="M 292.575744 185.398588 
L 334.089216 227.576471 
" clip-path="url(#p864b9a02ab)" style="fill: none; stroke: #00ffff; stroke-opacity: 0.03; stroke-width: 9.3; stroke-linecap: round"/>
   </g>
   <g id="line2d_130">
    <path d="M 292.575744 185.398588 
L 334.089216 227.576471 
" clip-path="url(#p864b9a02ab)" style="fill: none; stroke: #00ffff; stroke-opacity: 0.03; stroke-width: 10.35; stroke-linecap: round"/>
   </g>
   <g id="line2d_131">
    <path d="M 292.575744 185.398588 
L 334.089216 227.576471 
" clip-path="url(#p864b9a02ab)" style="fill: none; stroke: #00ffff; stroke-opacity: 0.03; stroke-width: 11.4; stroke-linecap: round"/>
   </g>
   <g id="line2d_132">
    <path d="M 292.575744 185.398588 
L 334.089216 227.576471 
" clip-path="url(#p864b9a02ab)" style="fill: none; stroke: #00ffff; stroke-opacity: 0.03; stroke-width: 12.45; stroke-linecap: round"/>
   </g>
   <g id="line2d_133">
    <path d="M 292.575744 185.398588 
L 334.089216 227.576471 
" clip-path="url(#p864b9a02ab)" style="fill: none; stroke: #00ffff; stroke-opacity: 0.03; stroke-width: 13.5; stroke-linecap: round"/>
   </g>
   <g id="line2d_134">
    <path d="M 334.089216 227.576471 
L 336.750336 264.971294 
" clip-path="url(#p864b9a02ab)" style="fill: none; stroke: #00ffff; stroke-opacity: 0.03; stroke-width: 4.05; stroke-linecap: round"/>
   </g>
   <g id="line2d_135">
    <path d="M 334.089216 227.576471 
L 336.750336 264.971294 
" clip-path="url(#p864b9a02ab)" style="fill: none; stroke: #00ffff; stroke-opacity: 0.03; stroke-width: 5.1; stroke-linecap: round"/>
   </g>
   <g id="line2d_136">
    <path d="M 334.089216 227.576471 
L 336.750336 264.971294 
" clip-path="url(#p864b9a02ab)" style="fill: none; stroke: #00ffff; stroke-opacity: 0.03; stroke-width: 6.15; stroke-linecap: round"/>
   </g>
   <g id="line2d_137">
    <path d="M 334.089216 227.576471 
L 336.750336 264.971294 
" clip-path="url(#p864b9a02ab)" style="fill: none; stroke: #00ffff; stroke-opacity: 0.03; stroke-width: 7.2; stroke-linecap: round"/>
   </g>
   <g id="line2d_138">
    <path d="M 334.089216 227.576471 
L 336.750336 264.971294 
" clip-path="url(#p864b9a02ab)" style="fill: none; stroke: #00ffff; stroke-opacity: 0.03; stroke-width: 8.25; stroke-linecap: round"/>
   </g>
   <g id="line2d_139">
    <path d="M 334.089216 227.576471 
L 336.750336 264.971294 
" clip-path="url(#p864b9a02ab)" style="fill: none; stroke: #00ffff; stroke-opacity: 0.03; stroke-width: 9.3; stroke-linecap: round"/>
   </g>
   <g id="line2d_140">
    <path d="M 334.089216 227.576471 
L 336.750336 264.971294 
" clip-path="url(#p864b9a02ab)" style="fill: none; stroke: #00ffff; stroke-opacity: 0.03; stroke-width: 10.35; stroke-linecap: round"/>
   </g>
   <g id="line2d_141">
    <path d="M 334.089216 227.576471 
L 336.750336 264.971294 
" clip-path="url(#p864b9a02ab)" style="fill: none; stroke: #00ffff; stroke-opacity: 0.03; stroke-width: 11.4; stroke-linecap: round"/>
   </g>
   <g id="line2d_142">
    <path d="M 334.089216 227.576471 
L 336.750336 264.971294 
" clip-path="url(#p864b9a02ab)" style="fill: none; stroke: #00ffff; stroke-opacity: 0.03; stroke-width: 12.45; stroke-linecap: round"/>
   </g>
   <g id="line2d_143">
    <path d="M 334.089216 227.576471 
L 336.750336 264.971294 
" clip-path="url(#p864b9a02ab)" style="fill: none; stroke: #00ffff; stroke-opacity: 0.03; stroke-width: 13.5; stroke-linecap: round"/>
   </g>
   <g id="PathCollection_10">
    <defs>
     <path id="mb2e474fe7f" d="M 0 15.811388 
C 4.193229 15.811388 8.215279 14.145401 11.18034 11.18034 
C 14.145401 8.215279 15.811388 4.193229 15.811388 0 
C 15.811388 -4.193229 14.145401 -8.215279 11.18034 -11.18034 
C 8.215279 -14.145401 4.193229 -15.811388 0 -15.811388 
C -4.193229 -15.811388 -8.215279 -14.145401 -11.18034 -11.18034 
C -14.145401 -8.215279 -15.811388 -4.193229 -15.811388 0 
C -15.811388 4.193229 -14.145401 8.215279 -11.18034 11.18034 
C -8.215279 14.145401 -4.193229 15.811388 0 15.811388 
z
" style="stroke: #fffafa"/>
    </defs>
    <g clip-path="url(#p864b9a02ab)">
     <use xlink:href="#mb2e474fe7f" x="278.205696" y="96.259765" style="fill: #fffafa; stroke: #fffafa"/>
    </g>
   </g>
   <g id="PathCollection_11">
    <defs>
     <path id="md39ab19f64" d="M 0 3.535534 
C 0.937635 3.535534 1.836992 3.163008 2.5 2.5 
C 3.163008 1.836992 3.535534 0.937635 3.535534 0 
C 3.535534 -0.937635 3.163008 -1.836992 2.5 -2.5 
C 1.836992 -3.163008 0.937635 -3.535534 0 -3.535534 
C -0.937635 -3.535534 -1.836992 -3.163008 -2.5 -2.5 
C -3.163008 -1.836992 -3.535534 -0.937635 -3.535534 0 
C -3.535534 0.937635 -3.163008 1.836992 -2.5 2.5 
C -1.836992 3.163008 -0.937635 3.535534 0 3.535534 
z
" style="stroke: #fffafa"/>
    </defs>
    <g clip-path="url(#p864b9a02ab)">
     <use xlink:href="#md39ab19f64" x="199.968768" y="94.955294" style="fill: #fffafa; stroke: #fffafa"/>
    </g>
   </g>
   <g id="PathCollection_12">
    <g clip-path="url(#p864b9a02ab)">
     <use xlink:href="#md39ab19f64" x="251.062272" y="120.609882" style="fill: #fffafa; stroke: #fffafa"/>
    </g>
   </g>
   <g id="PathCollection_13">
    <g clip-path="url(#p864b9a02ab)">
     <use xlink:href="#md39ab19f64" x="212.742144" y="124.523294" style="fill: #fffafa; stroke: #fffafa"/>
    </g>
   </g>
   <g id="PathCollection_14">
    <g clip-path="url(#p864b9a02ab)">
     <use xlink:href="#md39ab19f64" x="302.155776" y="121.479529" style="fill: #fffafa; stroke: #fffafa"/>
    </g>
   </g>
   <g id="PathCollection_15">
    <g clip-path="url(#p864b9a02ab)">
     <use xlink:href="#md39ab19f64" x="345.26592" y="125.392941" style="fill: #fffafa; stroke: #fffafa"/>
    </g>
   </g>
   <g id="PathCollection_16">
    <g clip-path="url(#p864b9a02ab)">
     <use xlink:href="#md39ab19f64" x="358.039296" y="96.694588" style="fill: #fffafa; stroke: #fffafa"/>
    </g>
   </g>
   <g id="PathCollection_17">
    <g clip-path="url(#p864b9a02ab)">
     <use xlink:href="#md39ab19f64" x="256.384512" y="185.398588" style="fill: #fffafa; stroke: #fffafa"/>
    </g>
   </g>
   <g id="PathCollection_18">
    <g clip-path="url(#p864b9a02ab)">
     <use xlink:href="#md39ab19f64" x="292.575744" y="185.398588" style="fill: #fffafa; stroke: #fffafa"/>
    </g>
   </g>
   <g id="PathCollection_19">
    <g clip-path="url(#p864b9a02ab)">
     <use xlink:href="#md39ab19f64" x="220.19328" y="228.011294" style="fill: #fffafa; stroke: #fffafa"/>
    </g>
   </g>
   <g id="PathCollection_20">
    <g clip-path="url(#p864b9a02ab)">
     <use xlink:href="#md39ab19f64" x="216.999936" y="265.406118" style="fill: #fffafa; stroke: #fffafa"/>
    </g>
   </g>
   <g id="PathCollection_21">
    <g clip-path="url(#p864b9a02ab)">
     <use xlink:href="#md39ab19f64" x="334.089216" y="227.576471" style="fill: #fffafa; stroke: #fffafa"/>
    </g>
   </g>
   <g id="PathCollection_22">
    <g clip-path="url(#p864b9a02ab)">
     <use xlink:href="#md39ab19f64" x="336.750336" y="264.971294" style="fill: #fffafa; stroke: #fffafa"/>
    </g>
   </g>
  </g>
 </g>
 <defs>
  <clipPath id="p864b9a02ab">
   <rect x="103.104" y="41.472" width="266.112" height="266.112"/>
  </clipPath>
 </defs>
</svg>
